<?xml version="1.0" standalone="no"?><!DOCTYPE svg PUBLIC "-//W3C//DTD SVG 1.1//EN" "http://www.w3.org/Graphics/SVG/1.1/DTD/svg11.dtd"><svg class="icon" width="200px" height="200.00px" viewBox="0 0 1024 1024" version="1.1" xmlns="http://www.w3.org/2000/svg"><path fill="#ffffff" d="M860.72024 406.155347l87.707574-87.72497c13.917988-13.917988 13.917988-36.475749 0-50.387597-7.998161-7.992021-18.841114-11.235902-29.265534-10.04068-1.291412-0.14224-2.552126-0.391926-3.8814-0.391926l-79.148641 0.010233c-8.429996-77.229942-73.997318-137.546679-153.428392-137.546679L219.526809 120.073726c-85.136006 0-154.394393 69.263503-154.394393 154.399509l0 475.058646c0 85.136006 69.258387 154.394393 154.394393 154.394393l463.177038 0c85.129866 0 154.394393-69.258387 154.394393-154.394393L837.098239 554.531676l78.18264-0.010233c1.045819 0 2.030239-0.220011 3.053546-0.308015 1.630127 0.226151 3.260254 0.470721 4.90266 0.470721 9.115612 0 18.232247-3.479241 25.190729-10.438747 13.917988-13.911848 13.917988-36.470633 0-50.382481L860.72024 406.155347zM731.856313 483.286028c-4.370541 0-8.506744 0.896416-12.374842 2.336208L719.481472 326.554404c3.869121 1.439792 8.005324 2.337231 12.374842 2.337231l105.371886-0.013303-52.078099 52.088332c-6.959505 6.956436-10.438747 16.075117-10.438747 25.193799-0.001023 9.118682 3.478218 18.238386 10.438747 25.194822 0.010233 0.010233 0.021489 0.016373 0.031722 0.025583l51.891857 51.891857L731.856313 483.286028zM764.119111 257.628592l-32.262798 0.004093c-4.370541 0-8.506744 0.896416-12.374842 2.336208l0-52.555983c0-2.700505-0.358157-5.307889-0.927115-7.836479C741.588979 210.651674 758.813269 231.953839 764.119111 257.628592zM219.526809 191.331653l432.695816 0c-2.473331 4.850471-4.000104 10.261715-4.000104 16.081257l0 435.230546L219.526809 642.643456c-29.90817 0-58.663074 8.806573-83.135442 24.446785L136.391367 274.473235C136.391367 228.632187 173.685761 191.331653 219.526809 191.331653zM765.839289 749.531881c0 45.842071-37.299511 83.135442-83.135442 83.135442L219.526809 832.667324c-40.24254 0-73.880661-28.745694-81.501222-66.778916 3.638877-2.780323 6.962575-6.052856 9.389858-10.266831 14.810311-25.736151 42.443671-41.718147 72.111364-41.718147l439.424054 0c3.800559 0 7.392364-0.754177 10.82658-1.855254 4.320399 1.860371 9.071609 2.911306 14.074553 2.911306 19.682271 0 35.629475-15.953344 35.629475-35.629475L719.481472 552.207747c3.869121 1.439792 8.005324 2.337231 12.374842 2.337231l33.981952-0.004093L765.838266 749.531881z" /></svg>