<?xml version="1.0" standalone="no"?><!DOCTYPE svg PUBLIC "-//W3C//DTD SVG 1.1//EN" "http://www.w3.org/Graphics/SVG/1.1/DTD/svg11.dtd"><svg class="icon" width="200px" height="200.00px" viewBox="0 0 1024 1024" version="1.1" xmlns="http://www.w3.org/2000/svg"><path fill="#ffffff" d="M251.904 401.408h166.912v46.592H251.904zM251.904 518.144h166.912v46.592H251.904zM602.624 401.408h166.912v46.592h-166.912zM602.624 518.144h166.912v46.592h-166.912zM534.528 421.888v203.264c0 12.8-10.24 23.552-23.552 23.552-12.8 0-23.552-10.24-23.552-23.552V421.888c0-12.8 10.24-23.552 23.552-23.552 12.8 0.512 23.552 10.752 23.552 23.552z"  /><path fill="#ffffff" d="M463.872 739.328H144.896V248.832h317.44c13.824 0 25.088 11.264 25.088 25.088s-11.264 25.088-25.088 25.088H195.072v390.656h268.8c13.824 0 25.088 11.264 25.088 25.088s-11.264 24.576-25.088 24.576zM879.104 739.328h-326.656c-13.824 0-25.088-11.264-25.088-25.088s11.264-25.088 25.088-25.088H829.44V298.496h-276.992c-13.824 0-25.088-11.264-25.088-25.088s11.264-25.088 25.088-25.088h326.656v491.008z"  /><path fill="#ffffff" d="M510.464 347.136c-38.912 0-70.144-31.232-70.144-70.144 0-13.824 11.264-25.088 25.088-25.088s25.088 11.264 25.088 25.088c0 11.264 9.216 19.968 20.48 19.968s20.48-9.216 20.48-19.968c0-13.824 11.264-25.088 25.088-25.088s25.088 11.264 25.088 25.088c-0.512 38.912-32.256 70.144-71.168 70.144zM510.464 787.968c-37.888 0-68.096-31.232-68.096-70.144 0-13.824 11.264-25.088 25.088-25.088s25.088 11.264 25.088 25.088c0 11.264 8.192 19.968 18.432 19.968s18.432-9.216 18.432-19.968c0-13.824 11.264-25.088 25.088-25.088s25.088 11.264 25.088 25.088c-0.512 38.4-31.232 70.144-69.12 70.144z"  /></svg>