<?xml version="1.0" standalone="no"?><!DOCTYPE svg PUBLIC "-//W3C//DTD SVG 1.1//EN" "http://www.w3.org/Graphics/SVG/1.1/DTD/svg11.dtd"><svg class="icon" width="200px" height="200.00px" viewBox="0 0 1024 1024" version="1.1" xmlns="http://www.w3.org/2000/svg"><path fill="#ffffff" d="M629.361778 901.404444M766.976 1018.88l-345.884444-0.568889-92.728889 0.568889c-61.610667 0-111.160889-2.389333-141.596444-32.312889-30.663111-30.151111-36.807111-83.057778-36.807111-158.606222L149.959111 196.096c0-167.196444 38.058667-190.976 178.631111-190.976l345.656889 0.568889 92.501333-0.568889c140.572444 0 178.631111 23.779556 178.631111 190.976l0 631.864889C945.379556 995.100444 907.377778 1018.88 766.976 1018.88zM421.148444 975.644444l345.884444 0.568889c116.394667 0 135.736889-4.096 135.736889-148.252444L902.769778 196.096c0-144.270222-19.342222-148.309333-135.964444-148.309333l-345.656889 0.568889-92.501333-0.568889c-116.565333 0-135.964444 4.096-135.964444 148.309333l0 631.864889c0 74.24 6.997333 111.388444 24.064 128.227556 17.237333 16.952889 51.143111 20.081778 111.672889 20.081778L421.148444 975.644444zM99.953778 254.236444l142.791111 0 0 42.666667-142.791111 0 0-42.666667ZM99.953778 392.931556l142.791111 0 0 42.666667-142.791111 0 0-42.666667ZM99.953778 531.569778l142.791111 0 0 42.666667-142.791111 0 0-42.666667ZM99.953778 670.264889l142.791111 0 0 42.666667-142.791111 0 0-42.666667ZM709.859556 26.965333l42.666667 0 0 970.012444-42.666667 0 0-970.012444Z" /></svg>