<?xml version="1.0" standalone="no"?><!DOCTYPE svg PUBLIC "-//W3C//DTD SVG 1.1//EN" "http://www.w3.org/Graphics/SVG/1.1/DTD/svg11.dtd"><svg class="icon" width="200px" height="200.00px" viewBox="0 0 1024 1024" version="1.1" xmlns="http://www.w3.org/2000/svg"><path fill="#ffffff" d="M271.146667 128h-85.333334a64 64 0 0 0-64 64v640a64 64 0 0 0 64 64h85.333334a64 64 0 0 0 64-64V192a64 64 0 0 0-64-64z m21.333333 704a21.333333 21.333333 0 0 1-21.333333 21.333333h-85.333334a21.333333 21.333333 0 0 1-21.333333-21.333333V320h128z m0-554.666667h-128V192a21.333333 21.333333 0 0 1 21.333333-21.333333h85.333334a21.333333 21.333333 0 0 1 21.333333 21.333333zM901.12 808.533333L789.333333 178.346667a64 64 0 0 0-74.026666-51.84l-84.053334 14.72a64 64 0 0 0-44.16 31.146666A64 64 0 0 0 527.146667 128h-85.333334a64 64 0 0 0-64 64v640a64 64 0 0 0 64 64h85.333334a64 64 0 0 0 64-64V279.253333l99.84 566.4a64 64 0 0 0 74.24 51.84l84.053333-14.72a64 64 0 0 0 51.84-74.24zM548.48 832a21.333333 21.333333 0 0 1-21.333333 21.333333h-85.333334a21.333333 21.333333 0 0 1-21.333333-21.333333V320h128z m0-554.666667h-128V192a21.333333 21.333333 0 0 1 21.333333-21.333333h85.333334a21.333333 21.333333 0 0 1 21.333333 21.333333z m73.386667-69.333333A21.333333 21.333333 0 0 1 640 183.253333l83.2-14.72a21.333333 21.333333 0 0 1 24.746667 17.28l14.933333 84.053334-126.08 21.333333z m219.946666 632.746667l-84.053333 14.72a21.333333 21.333333 0 0 1-24.746667-17.28L644.266667 334.08l125.866666-21.333333 88.96 504.106666a21.333333 21.333333 0 0 1-17.28 23.893334z" /></svg>