<?xml version="1.0" standalone="no"?><!DOCTYPE svg PUBLIC "-//W3C//DTD SVG 1.1//EN" "http://www.w3.org/Graphics/SVG/1.1/DTD/svg11.dtd"><svg class="icon" width="200px" height="181.88px" viewBox="0 0 1126 1024" version="1.1" xmlns="http://www.w3.org/2000/svg"><path fill="#ffffff" d="M792.576 379.392a25.6 25.6 0 0 0 25.2928 25.8048h283.2384A25.6 25.6 0 0 0 1126.4 379.392a25.6 25.6 0 0 0-25.2928-25.8048h-283.2384a25.6 25.6 0 0 0-25.344 25.8048z m303.9232 80.7424H761.856c-16.5376 0-29.9008 11.6224-29.9008 25.7536 0 14.1824 13.312 25.7536 29.9008 25.7536h334.6432c16.4864 0 29.9008-11.5712 29.9008-25.7536 0-14.1312-13.4144-25.7536-29.9008-25.7536z m4.608 106.496h-283.2384a25.6 25.6 0 0 0-25.344 25.7536 25.6 25.6 0 0 0 25.344 25.7536h283.2384A25.6 25.6 0 0 0 1126.4 592.384a25.6 25.6 0 0 0-25.2928-25.8048zM543.0272 1024H341.6576C150.8352 1024 0 1024 0 923.648v-20.1216c0-188.16 153.2928-341.1968 341.7088-341.1968h201.2672c188.416 0 341.76 153.0368 341.76 341.1968v20.0704C884.6848 1024 726.3232 1024 542.976 1024z m-203.1616-405.1456c-158.464 0-287.4368 128.4096-287.4368 286.208v20.48c0 40.9088 166.0928 40.9088 287.4368 40.9088h204.9536c100.4544 0 287.4368 0 287.4368-40.96v-20.3776c0-157.8496-128.9728-286.208-287.4368-286.208H339.8656z m92.416-76.7488a271.4112 271.4112 0 0 1-271.2064-271.0528A271.36 271.36 0 0 1 432.2816 0a271.36 271.36 0 0 1 271.2064 271.0528 271.4624 271.4624 0 0 1-271.2064 271.0528z m-215.3472-271.872c0 118.1696 96.6144 214.3232 215.3472 214.3232 118.784 0 215.3984-96.1536 215.3984-214.3232 0-118.2208-96.6144-214.3232-215.3984-214.3232S216.9344 152.0128 216.9344 270.2336z" /></svg>